<?xml version="1.0" encoding="UTF-8"?>
<!DOCTYPE svg PUBLIC "-//W3C//DTD SVG 1.1//EN" "http://www.w3.org/Graphics/SVG/1.1/DTD/svg11.dtd">
<!-- Creator: CorelDRAW X7 -->
<svg xmlns="http://www.w3.org/2000/svg" xml:space="preserve" width="84.6666mm" height="84.6666mm" version="1.1" style="shape-rendering:geometricPrecision; text-rendering:geometricPrecision; image-rendering:optimizeQuality; fill-rule:evenodd; clip-rule:evenodd"
viewBox="0 0 8467 8467"
 xmlns:xlink="http://www.w3.org/1999/xlink">
 <defs>
  <style type="text/css">
   <![CDATA[
    .fil0 {fill:none}
    .fil1 {fill:white}
   ]]>
  </style>
 </defs>
 <g id="Layer_x0020_1">
  <metadata id="CorelCorpID_0Corel-Layer"/>
  <rect class="fil0" width="8467" height="8467"/>
  <path class="fil1" d="M4233 109c-2271,0 -4113,1833 -4113,4094 0,2261 1842,4094 4113,4094 2271,0 4113,-1833 4113,-4094 0,-2261 -1842,-4094 -4113,-4094zm1477 2316c-93,88 -772,1112 -845,1161l-241 -377c25,268 61,397 2,680 -35,170 -115,384 -232,512l440 621 885 -1263 4 2446 782 2 0 -3783 -795 1zm-2942 1589l1 -872c378,22 963,-136 966,430 0,192 -109,346 -281,415 -123,50 -524,17 -686,27zm-806 2190l805 3 0 -1468c512,-24 958,92 1366,-279 329,-300 434,-803 325,-1241 -101,-403 -428,-730 -845,-795 -172,-27 -1336,2 -1651,-7l0 3787z"/>
 </g>
</svg>
